<?xml version="1.0" encoding="UTF-8"?>
<svg id="Layer_1" data-name="Layer 1" xmlns="http://www.w3.org/2000/svg" xmlns:xlink="http://www.w3.org/1999/xlink" viewBox="0 0 484.65 121">
  <defs>
    <clipPath id="clippath">
      <rect width="121" height="121" fill="none"/>
    </clipPath>
    <clipPath id="clippath-1">
      <rect x="20.19" y="20.19" width="81" height="81" fill="none"/>
    </clipPath>
  </defs>
  <g clip-path="url(#clippath)">
    <path d="M34.37,34.36V4.65C34.37,2.08,36.45,0,39.03,0h42.95C84.55,0,86.64,2.08,86.64,4.65v29.71h29.71c2.57,0,4.65,2.08,4.65,4.66v42.96c0,2.57-2.08,4.65-4.65,4.65h-29.71v29.71c0,2.57-2.08,4.66-4.66,4.66h-42.95c-2.57,0-4.66-2.08-4.66-4.66v-29.71H4.66C2.08,86.63,0,84.55,0,81.98v-42.96C0,36.45,2.08,34.36,4.66,34.36h29.71" fill="#3fc1c9" fill-rule="evenodd"/>
  </g>
  <path d="M140.02,96.9h343.33v6.16H140.02v-6.16Z" fill="#3fc1c9"/>
  <path d="M141.97,27.37h29.1c2.09,0,4.32.42,6.67,1.25,2.36.82,4.67,2.09,6.94,3.81,2.28,1.72,4.34,3.89,6.19,6.48,1.86,2.6,3.34,5.66,4.46,9.17,1.11,3.52,1.67,7.52,1.67,12s-.56,8.49-1.67,12c-1.11,3.52-2.6,6.57-4.46,9.17-1.85,2.6-3.91,4.76-6.19,6.48-2.27,1.72-4.58,3-6.94,3.83-2.35.82-4.57,1.23-6.67,1.23h-29.1V27.37ZM163.95,90.5h2.88c1.83,0,3.26-.84,4.29-2.54,1.03-1.71,1.78-4.01,2.25-6.9.48-2.9.79-6.17.92-9.79.14-3.63.21-7.35.21-11.19s-.05-7.7-.15-11.31c-.08-3.63-.35-6.88-.81-9.75s-1.21-5.15-2.25-6.83c-1.04-1.68-2.53-2.52-4.46-2.52h-2.88v60.83Z" fill="#3fc1c9"/>
  <path d="M197.64,68.4c0-5.15,1.05-9.65,3.15-13.48,2.09-3.83,5.02-6.82,8.77-8.96,3.75-2.14,8.11-3.21,13.08-3.21s9.4,1.07,13.15,3.21c3.75,2.14,6.67,5.13,8.75,8.96,2.09,3.83,3.15,8.33,3.15,13.48s-1.05,9.64-3.15,13.5c-2.08,3.86-5,6.86-8.75,9-3.75,2.14-8.14,3.21-13.15,3.21s-9.33-1.07-13.08-3.21c-3.75-2.14-6.68-5.14-8.77-9-2.1-3.86-3.15-8.36-3.15-13.5ZM222.7,44.83c-.71,0-1.33.43-1.85,1.29-.52.85-.77,2.47-.77,4.88v34.79c0,2.41.26,4.03.77,4.88.53.85,1.15,1.27,1.85,1.27s1.35-.42,1.85-1.27c.5-.84.75-2.47.75-4.88v-34.79c0-2.4-.25-4.03-.75-4.88-.5-.86-1.12-1.29-1.85-1.29Z" fill="#3fc1c9"/>
  <path d="M275.02,94.1c-3.83,0-7.39-.61-10.67-1.83-3.27-1.22-6.08-2.96-8.46-5.23-2.38-2.28-4.23-4.99-5.56-8.15-1.33-3.17-2-6.67-2-10.5,0-5.15,1.07-9.66,3.21-13.52,2.14-3.86,5.14-6.85,9-8.98,3.86-2.14,8.36-3.21,13.5-3.21,2.92,0,5.73.3,8.46.9,2.73.58,5.15,1.4,7.23,2.44,2.09,1.04,3.67,2.22,4.73,3.52l-13.29,27.81-.58-.19c0-1.67-.07-3.59-.21-5.79-.13-2.21-.33-4.51-.63-6.9-.28-2.4-.65-4.76-1.1-7.06-.45-2.32-1.01-4.4-1.69-6.25-.68-1.86-1.47-3.34-2.38-4.46-.89-1.11-1.92-1.67-3.08-1.67-1.1,0-2.03.58-2.79,1.73-.77,1.16-1.34,2.65-1.73,4.48-.39,1.83-.58,3.75-.58,5.75,0,3.41.4,6.63,1.21,9.67.8,3.03,1.94,5.7,3.42,8.02,1.48,2.31,3.23,4.11,5.23,5.42,2.01,1.31,4.22,1.96,6.63,1.96,1.39,0,2.8-.28,4.25-.85,1.44-.57,2.67-1.32,3.69-2.25,1.03-.94,1.61-1.96,1.75-3.04,1.04.35,1.74,1.19,2.1,2.52.38,1.33.32,2.89-.17,4.65-.47,1.77-1.46,3.49-2.96,5.17-1.5,1.68-3.6,3.08-6.31,4.19s-6.11,1.67-10.21,1.67Z" fill="#3fc1c9"/>
  <path d="M296.21,27.37h23.56v62.88c4.26-.61,8.13-2.16,11.6-4.65,3.47-2.48,6.36-5.88,8.67-10.17,2.3-4.3,3.85-9.42,4.65-15.35h.65v32.71h-49.13V27.37Z" fill="#3fc1c9"/>
  <path d="M348.68,44.06h23.54v48.73h-23.54v-48.73ZM347.95,32.67c0-2.48.52-4.29,1.56-5.42,1.05-1.14,2.53-1.84,4.42-2.13,1.9-.29,4.09-.44,6.58-.44s4.67.15,6.54.44c1.88.28,3.33.99,4.38,2.13,1.05,1.13,1.58,2.93,1.58,5.42,0,2.02-.32,3.58-.96,4.69-.63,1.11-1.51,1.91-2.65,2.4-1.14.47-2.46.76-3.96.85-1.5.08-3.15.13-4.94.13s-3.52-.04-5.04-.13c-1.53-.09-2.86-.38-4-.85-1.13-.48-1.99-1.28-2.6-2.4-.61-1.11-.92-2.67-.92-4.69Z" fill="#3fc1c9"/>
  <path d="M375.61,44.06h23.56v2.94c1.47-1.18,3.35-2.18,5.65-3,2.29-.83,4.94-1.25,7.96-1.25s5.3.45,7.29,1.35c1.98.89,3.57,2.08,4.77,3.58,1.19,1.5,2.06,3.17,2.6,5,.55,1.83.83,3.67.83,5.5v34.6h-23.63v-37.29c0-1.83-.14-3.34-.42-4.54-.28-1.19-1.06-1.79-2.33-1.79-.91,0-1.54.34-1.92,1.02-.38.67-.6,1.48-.69,2.44s-.13,1.92-.13,2.88v37.29h-23.56v-48.73Z" fill="#3fc1c9"/>
  <path d="M454.45,92.79h-23.56V27.37h23.56v29.44c.96-2.26,2.3-4.46,4.04-6.6,1.75-2.14,3.94-3.92,6.58-5.33,2.64-1.42,5.7-2.13,9.19-2.13,2.14,0,3.94.24,5.42.73,1.48.47,2.63,1.06,3.42,1.75v25.65h-.65c-.14-1.53-.79-2.98-1.94-4.35-1.16-1.38-2.64-2.6-4.46-3.69-1.81-1.09-3.76-1.95-5.85-2.56-2.08-.61-4.14-.92-6.15-.92-2.41,0-4.49.31-6.25.92-1.77.61-2.65,1.55-2.65,2.81,0,.75.61,1.26,1.83,1.52,1.22.27,2.98.46,5.29.58,2.32.13,5.09.34,8.31.65,1.83.18,3.31.82,4.44,1.92,1.14,1.08,2.13,2.62,2.98,4.6.86,1.99,1.73,4.44,2.6,7.35.21.79.51,1.82.9,3.08.4,1.27.8,2.58,1.21,3.96.42,1.36.8,2.6,1.15,3.73.36,1.11.63,1.89.79,2.31h-23.54l-.69-2.06c-.46-1.38-1.04-3.14-1.75-5.29-.7-2.17-1.43-4.48-2.19-6.94-.75-2.46-1.43-4.78-2.04-6.96v21.25Z" fill="#3fc1c9"/>
  <g clip-path="url(#clippath-1)">
    <path d="M43.11,43.11v-19.82c0-1.72,1.39-3.1,3.1-3.1h28.66c1.72,0,3.11,1.39,3.11,3.1v19.82h19.82c1.72,0,3.1,1.39,3.1,3.1v28.66c0,1.71-1.39,3.1-3.1,3.1h-19.82v19.82c0,1.71-1.39,3.1-3.11,3.1h-28.66c-1.71,0-3.1-1.39-3.1-3.1v-19.82h-19.82c-1.72,0-3.11-1.39-3.11-3.1v-28.66c0-1.72,1.39-3.1,3.11-3.1h19.82" fill="#fff" fill-rule="evenodd"/>
  </g>
</svg>